<svg id="visual" viewBox="0 0 1102 544" width="1102" height="544" xmlns="http://www.w3.org/2000/svg" xmlns:xlink="http://www.w3.org/1999/xlink" version="1.1"><path d="M160 0L156.2 13C152.3 26 144.7 52 135.2 77.8C125.7 103.7 114.3 129.3 120.3 155.2C126.3 181 149.7 207 157.2 233C164.7 259 156.3 285 150.3 311C144.3 337 140.7 363 140.5 388.8C140.3 414.7 143.7 440.3 150.7 466.2C157.7 492 168.3 518 173.7 531L179 544L0 544L0 531C0 518 0 492 0 466.2C0 440.3 0 414.7 0 388.8C0 363 0 337 0 311C0 285 0 259 0 233C0 207 0 181 0 155.2C0 129.3 0 103.7 0 77.8C0 52 0 26 0 13L0 0Z" fill="#7097fc"></path><path d="M119 0L118.7 13C118.3 26 117.7 52 113.3 77.8C109 103.7 101 129.3 98.3 155.2C95.7 181 98.3 207 94.2 233C90 259 79 285 79 311C79 337 90 363 97 388.8C104 414.7 107 440.3 104.2 466.2C101.3 492 92.7 518 88.3 531L84 544L0 544L0 531C0 518 0 492 0 466.2C0 440.3 0 414.7 0 388.8C0 363 0 337 0 311C0 285 0 259 0 233C0 207 0 181 0 155.2C0 129.3 0 103.7 0 77.8C0 52 0 26 0 13L0 0Z" fill="#527ef6"></path><path d="M79 0L75.7 13C72.3 26 65.7 52 65 77.8C64.3 103.7 69.7 129.3 65.3 155.2C61 181 47 207 46.8 233C46.7 259 60.3 285 61.3 311C62.3 337 50.7 363 45 388.8C39.3 414.7 39.7 440.3 40.3 466.2C41 492 42 518 42.5 531L43 544L0 544L0 531C0 518 0 492 0 466.2C0 440.3 0 414.7 0 388.8C0 363 0 337 0 311C0 285 0 259 0 233C0 207 0 181 0 155.2C0 129.3 0 103.7 0 77.8C0 52 0 26 0 13L0 0Z" fill="#2f65ee"></path></svg>