<svg id="visual" viewBox="0 0 1102 544" width="1102" height="544" xmlns="http://www.w3.org/2000/svg" xmlns:xlink="http://www.w3.org/1999/xlink" version="1.1"><path d="M116 0L125.8 13C135.7 26 155.3 52 160.3 77.8C165.3 103.7 155.7 129.3 143.2 155.2C130.7 181 115.3 207 116.5 233C117.7 259 135.3 285 144.5 311C153.7 337 154.3 363 145.7 388.8C137 414.7 119 440.3 117.7 466.2C116.3 492 131.7 518 139.3 531L147 544L0 544L0 531C0 518 0 492 0 466.2C0 440.3 0 414.7 0 388.8C0 363 0 337 0 311C0 285 0 259 0 233C0 207 0 181 0 155.2C0 129.3 0 103.7 0 77.8C0 52 0 26 0 13L0 0Z" fill="#ff5454"></path><path d="M82 0L84 13C86 26 90 52 94.5 77.8C99 103.7 104 129.3 104.5 155.2C105 181 101 207 101.3 233C101.7 259 106.3 285 104.8 311C103.3 337 95.7 363 92.8 388.8C90 414.7 92 440.3 89.2 466.2C86.3 492 78.7 518 74.8 531L71 544L0 544L0 531C0 518 0 492 0 466.2C0 440.3 0 414.7 0 388.8C0 363 0 337 0 311C0 285 0 259 0 233C0 207 0 181 0 155.2C0 129.3 0 103.7 0 77.8C0 52 0 26 0 13L0 0Z" fill="#ff4353"></path><path d="M80 0L79.5 13C79 26 78 52 69.8 77.8C61.7 103.7 46.3 129.3 39 155.2C31.7 181 32.3 207 38 233C43.7 259 54.3 285 57.7 311C61 337 57 363 55.2 388.8C53.3 414.7 53.7 440.3 55.2 466.2C56.7 492 59.3 518 60.7 531L62 544L0 544L0 531C0 518 0 492 0 466.2C0 440.3 0 414.7 0 388.8C0 363 0 337 0 311C0 285 0 259 0 233C0 207 0 181 0 155.2C0 129.3 0 103.7 0 77.8C0 52 0 26 0 13L0 0Z" fill="#fe2e52"></path></svg>